<svg viewBox="0 0 440 440" xmlns="http://www.w3.org/2000/svg">
  <path d="M220,438.4243895268688C235.23063670995467,442.471887300088,250.7928919459037,431.16168090306076,264.9614533078691,424.26194165095455C278.6796717587101,417.5815082677655,288.34596966453853,404.02833437694153,302.4728521592178,398.26214858096284C317.1514446125762,392.27077069972165,336.9136442229136,399.9753301367284,349.1527190195867,389.89749636904503C361.6374850830661,379.61735680732255,358.5021981198735,358.658607270347,367.1593850209096,344.9983082974537C374.89505830323066,332.792078837341,388.72764155501005,325.6395050061717,397.265230225933,313.9800771278465C406.0063895210504,302.04264135965616,414.25829089780984,289.2900770131346,418.3608436018532,275.0746171242378C422.46346041347294,260.8589351007955,420.5023918676846,245.68836023880456,421.2388387860791,230.91085280246767C421.9739685605173,216.159775111606,425.84230778264373,201.203461299779,422.762119242701,186.7588378230141C419.67387610332656,172.27644209479814,406.7489909155374,161.36166978340452,403.33545593802614,146.95247790204465C399.47928771963217,130.67484543256535,408.6264499438463,112.07702207012439,401.48624873154637,96.94927012914287C394.74860945002405,82.67441530528957,379.03567607343075,74.4391273043164,365.3758807464658,66.52854863045023C351.97414458392274,58.767415630827955,334.36375892798975,59.86147773537735,321.8023362091423,50.803201029145434C308.2408142612614,41.02373407615252,305.0887940380017,19.43264279573983,290.0200083926678,12.188020610800407C275.7150465940868,5.310622123630225,258.3952715986578,13.541978549485673,242.54536255341557,12.698814705537657C227.18494537480328,11.881690244066279,212.11946538469329,5.292589353906699,196.8601089641238,7.2322155850573395C181.58497828120554,9.173846892450083,167.74166468404812,17.119803846602753,153.94665279599312,23.96065149309366C140.6265703278275,30.56598503994738,129.27103732077822,40.42337383660483,116.08318685956172,47.28891303149086C102.41499326989583,54.40451682826646,86.13494302351376,56.4181118678768,73.81657290328178,65.67603231354099C61.54855136722071,74.89611307893443,50.701280076488345,86.98356902933476,44.55560871664236,101.04575112410247C38.274912438206066,115.41688969919122,40.7700588507564,132.05940092576347,38.053950595571614,147.5060680624789C35.61319142590938,161.38680878136952,30.916610257558265,174.7288531177224,29.14087709237848,188.71023502207788C27.38199611882148,202.55892980225067,29.741892698372254,216.65369756997612,27.52128357299652,230.4358927690663C24.959188505518547,246.33751810920032,13.981457318686202,260.859665970675,14.925368459020223,276.9386911697329C15.825339003875888,292.269211650743,26.537688857720237,305.23054068793647,32.73686938898916,319.2806284435703C39.120142131728876,333.74795065676625,43.15668809783557,349.51191951435806,52.55659452490132,362.2277105668661C61.972634412009484,374.96532627352843,72.6862169835486,389.2650061273958,87.85188875730742,393.83786745230367C105.17105683461706,399.06006631443023,123.73101893044102,387.58857418236107,141.75514091248752,389.123491320843C155.1669598919501,390.2656291087641,168.61967057688435,394.51021710432104,180.00793370211983,401.6857888623674C195.36818396478566,411.3640494337335,202.45394127436933,433.7615750317699,220,438.4243895268688" fill="#8A3FFC" />
</svg>